PathFileType	4	(X/Y/Z)	G:\マイドライブ\biomec\experimentalData\240725\SJ3.trc
DataRate	CameraRate	NumFrames	NumMarkers	Units	OrigDataRate	OrigDataStartFrame	OrigNumFrames
200.00	200.00	      7	52	mm	200.00	403	      1608
Frame#	Time	handR			wrRI			wrRO			elbRI			elbRO			shRF			shRU			shRB			handL			wrLI			wrLO			elbLI			elbLO			shLF			shLU			shLB			toeR			baRI			baRO			heelR			anRI			anRO			knRI			knRO			troR			toeL			baLI			baLO			heelL			anLI			anLO			knLI			knLO			troL			head			earR			earL			clav			c7			ribR			ribL			xiph			ASISR			ASISL			PSISR			PSISL			t8			t11			L1			L3			LS			COX			
		X1	Y1	Z1	X2	Y2	Z2	X3	Y3	Z3	X4	Y4	Z4	X5	Y5	Z5	X6	Y6	Z6	X7	Y7	Z7	X8	Y8	Z8	X9	Y9	Z9	X10	Y10	Z10	X11	Y11	Z11	X12	Y12	Z12	X13	Y13	Z13	X14	Y14	Z14	X15	Y15	Z15	X16	Y16	Z16	X17	Y17	Z17	X18	Y18	Z18	X19	Y19	Z19	X20	Y20	Z20	X21	Y21	Z21	X22	Y22	Z22	X23	Y23	Z23	X24	Y24	Z24	X25	Y25	Z25	X26	Y26	Z26	X27	Y27	Z27	X28	Y28	Z28	X29	Y29	Z29	X30	Y30	Z30	X31	Y31	Z31	X32	Y32	Z32	X33	Y33	Z33	X34	Y34	Z34	X35	Y35	Z35	X36	Y36	Z36	X37	Y37	Z37	X38	Y38	Z38	X39	Y39	Z39	X40	Y40	Z40	X41	Y41	Z41	X42	Y42	Z42	X43	Y43	Z43	X44	Y44	Z44	X45	Y45	Z45	X46	Y46	Z46	X47	Y47	Z47	X48	Y48	Z48	X49	Y49	Z49	X50	Y50	Z50	X51	Y51	Z51	X52	Y52	Z52	

403	2.010	489.76395	736.75104	1020.72577	431.63025	678.36279	1032.14429	434.84232	728.15277	1086.03748	340.05316	619.59894	1258.55542	373.79156	548.87036	1236.08411	662.35120	653.58167	1316.01135	564.51886	648.33978	1376.10803	625.07910	631.42212	1367.65796	539.84119	1097.13037	1056.87134	503.64206	1167.82654	1099.02014	495.86273	1096.44263	1129.38928	472.72104	1171.49133	1338.01343	534.55481	1227.99304	1329.77087	730.31152	976.19543	1351.14697	627.51599	999.85950	1412.23669	704.79535	1002.63422	1410.78296	719.32874	726.05804	51.02959	642.20941	781.13513	37.69827	607.66461	659.14868	39.14988	436.32434	767.26843	39.10247	525.20221	794.13361	110.13428	497.78928	702.28192	102.67086	570.17682	825.58069	469.31659	568.03302	718.50452	478.46899	464.14545	741.10889	861.17786	654.50037	1102.18408	60.51007	577.61169	1066.12378	75.49555	569.13483	1179.06030	68.33002	378.91171	1147.96204	111.52480	485.11621	1088.22961	179.81854	468.60056	1182.22888	163.72684	606.51361	1020.27228	504.06030	620.34369	1131.66333	523.22668	512.56470	1084.90393	891.06470	879.13660	767.86658	1554.30347	781.47803	708.24420	1403.82178	814.20068	864.26538	1403.47827	710.28931	819.65356	1308.11975	651.03125	819.14545	1440.50891	555.62500	771.42371	1059.66943	584.82727	994.63812	1083.67456	666.28070	847.18903	1161.53967	543.42346	792.68622	930.38959	565.82074	1008.43127	972.44574	388.00345	851.61926	1008.01660	405.76718	970.22308	1027.75146	481.93652	869.95099	1288.83655	439.70996	887.80719	1163.28040	427.89178	898.21045	1103.61523	410.46457	903.40161	1051.96973	384.80383	913.30499	1014.52203	340.39139	934.82684	911.09937	
404	2.015	491.08606	735.25989	1020.35803	432.67834	677.47766	1030.77478	435.59351	726.86139	1085.14075	340.94452	617.36542	1257.04102	374.99716	546.78217	1234.39795	662.97375	652.47119	1315.11182	565.53174	646.30432	1375.19482	626.06244	629.64124	1366.56641	536.33539	1093.32642	1057.17529	501.64297	1164.85474	1099.04333	493.90240	1093.62109	1130.06921	472.12198	1169.64941	1338.17676	533.57257	1226.13977	1329.40332	730.10962	975.23651	1350.58008	627.43237	998.39038	1411.95898	705.35443	1001.07172	1410.14490	719.30353	726.05920	51.06430	642.22949	781.14703	37.68101	607.65570	659.15735	39.16475	436.32425	767.25531	39.08231	525.13483	794.05817	110.10949	497.85818	702.17273	102.59379	570.13452	824.83545	469.34186	568.05341	717.81891	478.41522	464.44553	740.69684	860.71783	657.47449	1100.51831	60.97060	580.75861	1063.78845	75.24244	571.16534	1176.80286	68.35426	380.83264	1143.48303	108.94662	486.71872	1084.45862	178.55545	469.79059	1178.79236	162.43747	605.69086	1017.81818	503.87018	618.68939	1129.48401	522.93799	510.93869	1083.60059	890.82568	879.89661	766.78259	1553.21765	782.27020	707.24963	1402.65698	814.55682	863.24927	1402.60071	710.75635	818.33728	1307.41125	651.42279	817.81836	1439.88354	555.39722	770.71887	1059.21594	584.07422	993.83716	1083.55725	666.02539	846.08630	1160.74841	542.92651	791.44495	930.26624	564.77496	1007.36615	971.92755	387.44846	849.86304	1007.96191	404.75366	968.59399	1027.71741	481.91159	868.21948	1288.66797	439.08472	886.15302	1163.56909	427.32523	896.60907	1103.80737	409.65091	901.61090	1052.05432	383.40424	911.54138	1015.08075	339.40952	932.83557	911.03687	
405	2.020	492.15952	734.71387	1019.57336	433.92520	676.03381	1029.81213	436.29077	725.70874	1084.25000	341.98209	615.35651	1255.56995	376.18311	544.92889	1232.80347	663.89520	651.18329	1313.98035	566.44293	644.61713	1374.13989	626.97839	628.35309	1365.69360	534.52832	1090.23462	1057.56360	499.98169	1161.92871	1099.02490	492.33768	1090.88745	1130.49487	471.24417	1167.77869	1338.38220	532.83984	1224.23535	1328.93860	730.14819	974.26636	1350.00513	627.57007	997.16132	1411.61426	704.91150	1000.37103	1409.56592	719.31042	726.07965	51.07928	642.24072	781.13409	37.67758	607.66174	659.14929	39.17590	436.32489	767.25885	39.03893	525.13202	793.99524	110.11826	497.92523	702.07721	102.49710	569.98828	824.13666	469.41916	568.02222	717.03564	478.31567	463.81641	739.14807	860.62061	660.20880	1099.11951	61.55716	583.59869	1061.48914	74.64101	573.23627	1174.53491	68.24971	382.64612	1139.50024	106.45864	488.19147	1081.14819	177.35838	470.87668	1175.44458	161.47481	602.67017	1015.55530	503.61557	617.36310	1127.03528	522.65656	509.63477	1082.03381	890.49780	880.46094	765.59363	1552.17908	783.04114	706.07135	1401.60889	814.96613	862.29889	1401.75354	711.16302	816.86157	1306.41089	651.88165	816.34485	1439.16479	555.39728	768.87469	1058.92603	583.00787	992.35004	1083.11304	665.86188	845.20087	1159.99158	542.43054	789.83832	930.05804	563.55292	1006.04449	971.95306	386.86258	848.19379	1008.00928	403.74908	966.93829	1027.75269	481.85223	866.63757	1288.60645	438.59445	884.51807	1163.60840	426.67462	894.91028	1103.90845	408.89484	899.95947	1051.92261	382.77628	909.92218	1014.98334	338.21295	931.01874	911.02484	
406	2.025	493.26270	733.79578	1019.32013	435.42554	674.98969	1028.61035	437.14322	724.01117	1083.09192	342.92389	613.28351	1254.14868	377.42886	543.32202	1231.17371	664.60309	650.26263	1313.09167	567.06451	643.38214	1373.29150	628.00421	626.64417	1364.79187	532.80493	1087.07617	1057.99524	498.18747	1158.81628	1098.86230	491.26697	1087.97437	1130.63977	470.58630	1166.07715	1338.41760	531.77692	1222.80066	1328.22620	730.58167	973.23157	1349.38062	627.70331	995.84161	1411.16516	705.05865	999.16278	1408.88635	719.30072	726.09131	51.10785	642.21466	781.15436	37.68442	607.66516	659.16638	39.17312	436.31937	767.24689	38.99637	525.14386	793.91400	110.09836	497.96722	701.99835	102.42735	569.80548	823.42413	469.46936	568.06134	716.39801	478.19666	463.33893	737.66772	860.54590	662.95819	1097.87646	62.13031	586.88147	1059.46082	74.36072	575.34998	1172.34985	68.36361	384.65231	1135.58691	104.21701	489.98001	1077.83374	175.98094	472.15222	1172.04419	160.06134	601.47461	1013.12329	503.38382	615.94458	1124.67285	522.51862	508.03955	1080.65295	890.32495	881.00891	764.69342	1551.21667	783.76984	705.09277	1400.54370	815.34723	861.42151	1400.73792	711.61438	815.61749	1305.58301	652.39362	815.11743	1438.43848	555.39337	767.63519	1058.57275	582.12122	991.37549	1082.69653	665.65594	844.33966	1159.44556	541.90430	788.81250	929.87317	562.15240	1004.93396	971.14380	386.19193	846.49487	1008.02856	402.78104	965.20270	1027.69446	481.91138	865.10645	1288.48340	438.34827	882.83606	1163.60278	426.40204	893.38330	1103.85144	408.11746	898.33545	1052.14587	381.71964	907.92712	1015.07574	337.15491	929.24146	910.93060	
407	2.030	494.92169	731.65497	1018.79230	436.29077	673.73175	1027.34094	437.46716	723.09314	1082.09668	344.03018	611.19507	1252.47046	378.66217	541.26416	1229.52344	665.28253	649.37750	1312.32715	567.84515	641.97394	1372.31897	628.66174	625.50134	1363.87842	531.22668	1083.71741	1058.41333	496.63419	1155.89832	1098.65295	489.16248	1085.36584	1130.92566	469.89978	1164.17334	1338.28540	530.81641	1221.15540	1327.67554	731.56451	972.07825	1348.66516	627.81085	994.73334	1410.62646	705.24609	998.34753	1408.19690	719.29498	726.09766	51.12433	642.20819	781.15424	37.68121	607.68329	659.18677	39.19070	436.31537	767.24237	39.01146	525.10706	793.86481	110.09298	498.02264	701.88104	102.33940	569.75464	822.84320	469.51202	568.16467	715.72412	478.14331	463.03760	736.34772	860.30139	665.59155	1096.61267	63.03229	589.67786	1057.50696	74.10426	577.43085	1170.21033	68.40804	386.44174	1131.67834	101.89109	491.61700	1074.58105	174.68518	473.13138	1168.99451	158.99263	600.01855	1011.09784	503.17447	614.30273	1122.44128	522.19299	506.59958	1079.30811	889.98669	881.56879	763.80194	1550.10400	784.44800	704.26196	1399.37573	815.61102	860.64124	1399.94946	711.88098	814.65674	1304.84045	653.00604	813.83264	1437.90527	555.41681	766.60254	1058.05701	581.07300	990.29028	1082.32471	665.40613	843.49103	1158.79590	541.48218	787.40240	929.62683	561.26318	1003.99908	971.06104	385.58115	844.83289	1007.94214	401.59451	963.73785	1027.80396	481.92236	863.42871	1288.22131	437.98407	881.38300	1163.64673	426.16443	891.54773	1103.74988	407.36383	896.87695	1052.12256	381.07074	906.37256	1015.09387	336.12274	927.42017	910.99445	
408	2.035	496.06635	730.57690	1018.38373	437.39258	672.45203	1026.09851	438.18243	721.39819	1080.95044	345.06976	609.11273	1251.15588	380.29272	539.57288	1228.15662	665.87500	648.34570	1311.28076	568.67206	640.44977	1371.39063	629.51245	624.41730	1363.14587	529.53101	1080.65088	1058.71558	494.91324	1152.90137	1098.35742	487.50540	1082.73047	1131.27625	469.25226	1162.55408	1338.02869	530.13354	1219.38281	1327.01208	733.08728	970.80066	1347.84229	627.89337	993.53601	1409.63440	705.67926	997.12335	1407.39319	719.30145	726.09479	51.14435	642.20105	781.16223	37.67369	607.67261	659.19073	39.20150	436.30316	767.21808	38.97226	525.12799	793.82666	110.08912	498.10220	701.79431	102.25558	569.67023	822.24817	469.59943	568.28876	715.08490	478.09940	462.75952	734.98059	860.16687	668.45294	1095.17065	63.61489	592.50140	1055.61914	73.54042	579.64746	1167.98096	68.63480	388.34430	1128.03137	99.48403	493.18024	1071.69409	173.71474	474.23486	1165.96692	157.64151	598.85400	1009.02563	502.88156	612.69366	1120.30750	521.78595	505.20914	1077.81348	889.85107	882.18402	763.00336	1549.08093	785.06219	703.43274	1398.32166	816.10132	859.89661	1399.22302	712.37329	813.24164	1303.93262	653.50519	812.79327	1437.33472	555.46161	765.49219	1057.76709	580.29175	989.24738	1081.94336	665.16394	842.74976	1158.11768	541.03784	786.19446	929.32806	559.99280	1002.35535	970.72150	384.83746	843.31091	1007.92688	400.90103	962.10632	1027.62878	481.85269	862.13611	1288.04602	437.52985	879.69666	1163.58069	425.82425	890.14667	1103.57544	406.68881	895.21368	1052.06458	379.63101	904.46991	1014.55255	334.98071	925.59857	910.97278	
409	2.040	497.17957	729.31714	1018.22961	438.65561	671.05231	1025.17590	438.58835	720.23273	1079.87817	346.12885	606.94434	1249.57043	381.41956	537.46564	1226.60852	666.49030	647.67615	1310.50232	569.43909	639.01563	1370.74170	630.32092	623.56409	1362.23242	527.49255	1077.15894	1059.24951	493.21298	1149.89734	1097.98657	486.55478	1079.90601	1131.44580	468.71274	1160.84155	1337.59644	528.92712	1218.09741	1326.01013	734.48413	969.58313	1346.99414	627.80255	992.40442	1409.20374	705.04456	996.50946	1406.89038	719.28467	726.11267	51.17517	642.19531	781.16846	37.68547	607.68579	659.20496	39.21811	436.29041	767.23590	38.97586	525.12024	793.79132	110.08926	498.15256	701.69989	102.18536	569.67157	821.62384	469.73102	568.39880	714.35461	477.95700	462.15784	733.66370	860.07507	671.05573	1093.76160	64.48566	595.25629	1053.53711	73.59536	581.62683	1166.17603	68.51111	390.41699	1124.51990	97.05905	494.61783	1068.63879	172.20807	475.45505	1163.22241	156.40019	597.63000	1006.80908	502.71152	611.36639	1118.27661	521.52972	503.63577	1076.55029	889.65472	882.85468	762.10663	1548.17627	785.74902	702.52722	1397.12866	816.50531	859.24170	1398.41602	712.57239	812.36609	1303.10547	653.91199	811.62500	1436.70459	555.50970	764.37909	1057.59558	579.40179	988.11212	1081.59009	665.13251	841.76239	1157.45679	540.23364	784.97198	928.69421	558.62549	1001.66339	970.21698	384.32370	841.62958	1007.96539	399.55536	960.69519	1027.68152	481.98764	860.66193	1287.77942	437.35922	878.30573	1163.38330	425.33807	888.52417	1103.56458	405.95779	893.62531	1052.05164	379.43863	903.12878	1015.04236	333.96649	923.85803	910.90338	
